<svg width="430" height="41" viewBox="0 0 430 41" fill="none" xmlns="http://www.w3.org/2000/svg">
<path d="M229.533 0C235.248 0.520983 239.513 2.7625 242.453 7.85367C244.365 11.1608 243.959 14.4001 243.785 18.0389C244.684 18.1511 245.715 18.1845 246.625 18.1857C257.497 18.1995 268.392 18.2826 279.257 17.9472C280.992 17.8935 283.104 17.44 284.875 17.2653C294.163 16.4174 303.42 15.2644 312.632 13.808C322.23 12.2694 332.674 10.0338 342.334 9.31299C368.039 7.39548 396.011 6.80478 420.272 16.7347C423.582 18.0892 426.684 17.9543 429.223 20.741C429.395 21.8627 429.419 23.0052 429.467 24.1398C429.187 24.442 428.371 25.2643 428.08 25.4556C424.209 28.0034 413.136 22.5505 408.709 21.1352C405.304 20.0781 401.841 19.2191 398.338 18.5622C383.155 15.6863 365.958 15.7546 350.525 16.5103C338.143 17.1165 325.672 19.8274 313.46 21.7421C305.287 22.9994 297.082 24.0507 288.853 24.8945C285.861 25.2271 282.489 25.8235 279.436 25.9611C266.673 26.5365 253.619 25.5535 240.907 26.4178C239.172 26.5358 235.501 31.6272 234.041 33.1763C232.881 34.4228 231.587 35.5388 230.184 36.5051C223.765 40.8692 214.97 40.6706 207.594 39.2693C201.962 37.8539 200.26 35.7215 195.852 32.6818C193.209 32.9375 190.451 33.5834 187.775 33.7758C183.822 34.2784 179.589 33.8023 175.668 34.0389C165.858 34.7788 156.644 32.2728 147.01 31.4416C132.548 30.1946 117.559 30.7901 103.032 30.7662C88.6731 31.089 75.3449 35.6706 60.959 36.003C43.2096 36.4132 25.4929 37.2197 7.73203 36.566C5.26823 36.4753 0.241121 35.0964 0.0213263 32.1603C-0.447855 25.898 6.94425 28.5762 10.3858 28.8219C24.1183 28.8479 37.6615 29.0829 51.3625 28.1715C55.4837 27.8974 59.8199 28.146 63.9142 27.8587C74.6089 27.1086 84.9044 24.023 95.5748 23.0636C100.592 22.6406 106.282 22.8354 111.359 22.8342L136.815 22.8612C146.828 22.8965 155.733 24.5232 165.62 25.8133C170.763 26.4844 177.715 25.5977 183.026 25.9553C185.812 26.143 189.12 25.6406 191.845 25.0643C191.858 19.1377 191.296 6.4366 199.093 5.14775C205.119 4.15187 210.911 5.52548 216.39 7.93938C220.889 4.40615 223.111 0.49639 229.533 0ZM219.946 31.9419C224.707 31.4287 227.688 28.3991 230.578 24.8331C230.69 24.6951 230.797 24.5547 230.905 24.4124C228.557 23.7339 227.039 23.295 224.807 22.3767C223.335 21.7703 218.856 19.3695 217.691 19.1226C216.049 20.6734 214.211 23.158 212.455 24.968C210.162 27.3323 208.632 28.3024 206.238 30.3963C211.367 32.358 214.5 32.0116 219.946 31.9419ZM206.119 19.8788C207.84 18.1425 209.708 16.3689 210.928 14.243C207.148 12.9699 205.272 12.9565 201.348 13.0532C200.03 14.6969 199.275 22.0384 200.249 23.4598C202.119 23.9308 204.914 21.1597 206.119 19.8788ZM223.201 12.6077C226.38 14.4447 227.86 15.0524 231.373 16.2173C232.478 16.5323 233.924 17.0127 235.038 17.0143C235.523 16.6867 236.103 16.2909 236.122 15.6302C236.243 11.3038 233.423 8.45272 229.296 8.31997C226.807 8.98135 225.072 10.8499 223.201 12.6077Z" fill="#C30000"/>
</svg>
