<svg xmlns="http://www.w3.org/2000/svg" viewBox="70 17 87 87"><path d="M125.349 35.3656C125.312 33.9632 125.416 30.9459 126.373 29.8547C127.049 29.1264 128.365 29.0987 129.309 29.0885C130.69 29.0738 132.969 29.6501 134.05 30.5119C134.599 30.9501 134.676 33.3249 134.639 34.0138C135.818 33.8564 138.29 33.9137 139.334 34.4961C140.922 35.3811 142.531 37.333 143.68 38.7242C145.387 40.7546 146.995 42.8675 148.497 45.0556C150.616 48.1018 151.8 50.2864 154.603 52.9279C155.033 54.792 153.989 54.8087 152.6 54.0599C152.288 54.3839 152.088 54.548 151.658 54.7183C151.741 55.2412 151.949 55.8934 151.995 56.3676C152.39 60.4873 152.182 64.7426 152.148 68.8783C152.141 71.1686 152.102 73.459 152.029 75.7486C151.988 77.5376 152.136 80.3571 151.332 81.9202C150.837 82.8839 148.788 83.4797 147.796 83.6112C145.165 83.9595 143.08 82.9172 143.067 80.0741C142.803 79.9559 140.933 80.3745 140.563 80.4405C134.713 81.4856 128.867 82.6266 123.103 84.0805C120.268 84.7953 117.066 85.5483 114.365 86.6608C114.319 87.7489 114.27 88.5965 113.964 89.6583C116.34 88.9852 118.877 88.6598 121.296 88.0472C127.068 86.5857 132.68 84.6625 138.62 83.9261C139.457 83.7732 144.854 82.8262 143.497 84.9983C142.546 85.9224 140.526 85.9258 139.294 86.0913C133.903 86.8151 128.759 88.4116 123.519 89.789C120.951 90.4641 118.226 90.9953 115.623 91.5425C114.768 91.7171 113.916 91.9103 113.069 92.1224C112.549 92.2538 111.788 92.516 111.274 92.5528C109.513 92.6801 107.135 92.1996 106.636 90.2527L106.655 89.9718C106.547 89.5602 106.554 89.2007 106.462 88.7877C106.321 88.0424 106.368 86.2512 106.367 85.4071L106.365 79.4692V70.2035C106.365 68.7733 106.279 65.9093 106.542 64.6536C105.272 64.3574 105.817 64.1703 105.155 63.3457C104.517 62.5496 104.363 62.7067 103.89 61.6297C103.321 60.3343 103.529 58.788 103.082 57.5934C102.835 56.9343 101.987 55.7981 101.537 55.2516C100.562 54.4791 100.17 55.1042 100.281 53.4438C97.9271 50.4158 96.536 47.9398 94.4859 44.8436C93.8417 45.5152 93.1482 46.0958 92.4638 46.7306C90.4581 48.5899 88.6214 50.7391 86.8217 52.8014C86.2284 53.4807 85.5357 54.0884 84.9412 54.7691C83.7342 56.2334 82.4454 57.5142 81.0543 58.8012C80.2602 59.5361 79.7442 60.4199 78.6916 60.8648C80.7549 63.6127 80.2568 67.3159 80.5432 70.5755C80.7506 72.9382 80.8971 75.3384 81.0872 77.7031C81.2933 80.2674 81.8385 84.0763 81.2367 86.5523C82.1977 86.5753 84.8299 86.7971 85.7072 87.03C85.2952 84.8015 85.4466 83.4853 85.3128 81.3048L85.0384 76.5058C84.893 74.3246 84.6943 71.9724 84.879 69.7933C84.1152 68.9805 83.6589 68.2747 83.6934 67.1087C83.7292 65.8989 84.4482 64.0459 85.7789 63.7942C87.4671 63.475 89.2635 63.5877 90.9737 63.5307C93.7644 63.482 96.5493 63.4653 99.3389 63.5849C100.112 63.6176 101.065 63.7379 101.61 64.3497C102.86 65.7543 101.718 67.3667 101.185 68.7635C101.359 68.9464 101.56 69.1467 101.725 69.3337C102.054 70.8648 102.017 73.3206 102.129 74.9539L102.661 83.0918C102.729 84.312 102.869 85.5399 102.857 86.7574C102.852 87.2629 102.844 88.2635 102.204 88.3191C101.367 88.3921 100.865 88.1905 100.728 87.3443C100.542 86.1935 100.473 85.0699 100.407 83.922C100.29 81.6706 100.153 79.4198 99.9963 77.1705C99.8766 75.499 99.7495 73.8643 99.7412 72.1865C99.7377 71.4829 99.6678 70.6666 99.7683 69.9769L99.065 70.2021C99.1966 74.6778 99.0673 79.1647 99.3423 83.6466C99.4112 84.7681 99.6501 87.5174 99.212 88.4623C100.204 88.4839 101.292 88.5374 102.28 88.6118C103.418 88.698 105.569 88.3045 106.372 89.1771C106.393 89.3885 106.409 89.6436 106.454 89.8474C106.369 90.0365 106.322 90.1672 106.205 90.3383C104.944 90.971 103.582 90.8166 102.212 90.7853C98.4256 90.7082 94.6413 90.2708 90.8923 89.7827C89.6068 89.6151 88.1359 89.4698 86.8908 89.3711C84.1355 89.1521 81.3274 88.2141 78.6392 89.1354C77.5344 89.353 76.0225 89.287 74.9718 88.9629C74.2867 88.7509 73.4789 88.1348 73.2665 87.5097C72.7581 86.0148 72.9109 83.6334 72.9057 82.046C72.9023 79.698 72.8864 77.3499 72.858 75.0018C72.8093 72.982 72.7317 70.9628 72.6254 68.9457C72.4948 66.2584 72.2801 63.4848 72.6087 60.8106C72.6792 60.2363 73.3754 60.0729 73.6319 59.8316C73.4539 58.2567 73.2026 58.3993 74.0642 56.9273C75.0374 55.2641 74.5578 55.4929 76.3513 55.3524C75.2671 51.8384 77.7853 50.349 80.9032 51.8676C80.9044 49.7399 80.9711 47.6352 83.5836 47.2403C83.3758 46.4796 83.4187 45.7322 83.6094 44.9729C84.1188 42.9448 85.8733 42.9294 87.4935 43.4626C87.7754 40.7632 89.9488 39.9434 92.332 40.6784C92.7886 40.8192 93.2328 41.025 93.6835 41.165C94.1031 41.0361 94.5191 40.9242 94.948 40.8314C100.296 39.6742 105.743 39.121 111.134 38.2308C114.127 37.7416 117.105 37.1716 120.067 36.5213C121.793 36.1473 123.629 35.6571 125.349 35.3656ZM95.8552 42.8531C96.2351 43.4527 96.6715 44.1879 97.0637 44.765C97.7085 44.0509 98.4929 43.786 99.4098 43.5489C103.35 42.5321 107.432 42.3243 111.439 41.6577C116.516 40.8132 121.503 39.3683 126.654 39.0546C128.486 38.9431 130.358 38.9737 132.186 38.8449C134.381 38.6901 136.447 37.8178 138.694 38.2577C139.348 38.3223 139.943 38.4608 140.46 38.8784C140.833 39.1786 140.98 39.82 140.544 40.1109C139.419 40.8626 137.77 40.1291 136.451 40.3453C135.453 40.509 134.388 40.8706 133.466 40.9192C131.939 41.1461 130.484 41.1082 128.952 41.1343C123.536 41.2266 118.325 42.591 113.042 43.6295C109.237 44.377 105.306 44.6037 101.498 45.3414C100.14 45.5987 99.2568 46.0374 98.0638 46.3378C98.4936 47.0609 98.9898 47.7917 99.4496 48.5016C107.033 46.3413 116.053 46.0068 123.899 45.0584C126.957 44.6885 129.555 44.1677 132.528 43.7123C136.128 43.1599 140.038 42.5773 143.653 42.0962C142 40.4006 140.728 38.3325 138.872 36.853C137.928 36.1001 136.013 36.0273 134.871 36.1877C131.866 36.4485 128.88 36.889 125.928 37.5066C123.865 37.9327 121.791 38.4402 119.736 38.9152C114.385 40.1523 108.974 40.8185 103.554 41.6332L98.2151 42.4605C97.4903 42.5773 96.558 42.7738 95.8552 42.8531ZM114.172 75.6846C114.19 76.6907 114.203 77.8415 114.08 78.8427C117.512 77.4911 122.455 76.4064 126.047 75.4781C129.575 74.5318 133.126 73.6717 136.696 72.8992C137.968 72.6288 142.051 71.4481 142.881 72.5683C143.253 73.9401 140.347 74.6041 139.448 74.7112C136.592 75.289 133.72 75.9148 130.893 76.6414C126.467 77.7782 121.971 78.6779 117.595 80.0018C116.508 80.3307 115.264 80.6526 114.236 81.0955C114.271 82.1809 114.34 83.2684 114.256 84.3503C116.181 83.5673 118.74 82.9534 120.747 82.4006C128.112 80.4009 135.588 78.8281 143.133 77.6899C143.088 76.5364 143.634 69.146 143.418 68.8567C143.305 68.8567 143.176 68.8525 143.065 68.8567C139.557 69.6431 136.108 70.2619 132.597 70.9649C129.211 71.6435 125.84 72.3931 122.486 73.2128C119.721 73.8928 116.941 74.8996 114.172 75.6846ZM106.299 59.0758C106.752 59.9978 107.014 60.8287 107.283 61.8042C108.294 61.8105 109.467 61.7076 110.491 61.6617C113.27 61.5372 116.345 61.2827 119.074 60.6611C122.33 59.9241 125.549 58.9625 128.791 58.1698C135.409 56.5512 141.976 54.863 148.508 52.921C149.089 52.7485 150.603 52.6512 151.277 52.5816C150.678 52.0817 149.863 51.0735 149.447 50.4081C149.386 50.2141 149.058 49.8067 148.918 49.6301L148.631 49.2289C148.337 48.8158 147.633 47.7527 147.327 47.4322C146.947 47.6658 146.825 47.9245 146.366 48.0601C142.259 49.2706 137.991 49.8894 133.788 50.68C131.169 51.15 128.583 51.7702 125.953 52.1832C125.17 52.3063 124.386 52.51 123.596 52.6192C117.509 53.4619 111.362 53.756 105.255 54.4082C104.792 54.4576 104.333 54.5021 103.875 54.5827C104.306 55.2419 105.041 56.2939 105.326 56.9822C109.915 56.328 114.484 55.5402 119.028 54.6203C121.875 54.064 124.703 53.4341 127.558 52.9126C131.589 52.177 135.655 51.7153 139.691 51.0144C141.303 50.7349 147.419 49.2678 148.492 49.532C148.598 49.6099 148.781 49.7344 148.87 49.8206C149.134 50.267 149.228 50.349 149.25 50.8628C149.014 51.1576 148.671 51.4747 148.293 51.5568C143.264 52.6783 138.257 53.5968 133.146 54.2629C125.994 55.1946 118.968 57.097 111.838 58.2018C110.991 58.3325 110.145 58.5244 109.295 58.6461C108.294 58.7907 107.296 58.9041 106.299 59.0758ZM97.6754 88.3066C97.4468 88.0451 97.3507 87.8713 97.299 87.525C96.9422 85.1353 96.9698 82.5056 96.9225 80.104C96.8728 78.0466 96.8519 75.9892 96.8599 73.9311C96.8574 72.9326 96.7703 71.1631 96.9242 70.223C94.7836 70.3753 91.2312 70.2689 89.1053 69.9525C89.1715 70.7285 89.2266 71.526 89.3293 72.2978C89.4894 73.5021 89.7728 74.7988 89.884 76.0094C90.1898 79.3364 90.083 82.6899 90.4114 86.0155C90.4579 86.4869 90.4708 87.0279 90.4154 87.4972C92.2296 87.6905 94.0272 87.9422 95.84 88.1181C96.3126 88.1633 97.2449 88.3087 97.6754 88.3066ZM100.814 50.34C101.13 50.803 102.126 52.282 102.475 52.567C105.339 52.1756 108.213 51.862 111.093 51.6249C115.267 51.2752 119.694 51.0304 123.82 50.3059C129.534 49.3019 135.235 48.0614 140.965 47.1061C142.843 46.7932 144.596 46.1473 146.49 45.9915C146.225 45.6404 145.157 44.0474 144.856 44.0342C141.499 44.8922 137.369 45.153 133.942 45.7516C130.47 46.3579 127.177 46.9267 123.669 47.3321C119.295 47.8376 114.819 48.1428 110.462 48.7206C108.267 49.005 106.078 49.3339 103.897 49.7072C102.93 49.8804 101.701 50.212 100.814 50.34ZM145.791 66.0428C147.396 66.7625 146.938 67.2958 145.858 68.217C145.598 71.5058 145.523 74.9073 145.43 78.2058C145.413 78.8413 145.176 80.6436 145.652 81.1192C146.337 81.8027 148.657 81.3458 149.353 80.7618C149.597 80.5567 149.661 79.4956 149.687 79.1786C149.805 76.3278 149.741 73.4652 149.781 70.6117C149.813 68.2198 149.898 65.7271 149.971 63.3652C150.007 62.1887 149.96 55.8364 149.387 55.2461C148.377 54.8741 147.51 56.4747 146.704 56.8877C146.437 57.0254 146.2 57.0455 145.909 57.0851C145.594 56.7889 145.508 56.5143 145.365 56.1062C144.637 56.3217 144.293 56.4267 143.667 56.8487C144.503 56.7472 144.856 56.5873 145.505 57.2103C145.986 58.3749 145.932 64.6126 145.791 66.0428ZM78.9593 86.724C79.5233 82.4416 78.7785 78.2462 78.4935 73.9485C78.3092 71.1686 78.1317 68.3874 77.9483 65.6075C77.9149 65.1014 77.8177 64.5917 77.7147 64.0952C77.5332 63.2206 77.0354 62.3834 77.1173 61.5038L77.1262 61.4023C77.1285 61.3822 77.1307 61.362 77.133 61.3411C76.3737 61.2236 75.3992 61.0776 74.7069 60.7425L74.7206 60.8398C74.9504 62.5378 74.7692 65.4879 74.8392 67.3104C74.9238 69.5117 75.1024 71.7854 75.1209 73.97L75.1324 81.2256C75.1326 82.0836 74.99 85.9335 75.4722 86.7519C75.6963 87.1322 77.8905 87.0203 78.3126 86.9632C78.5712 86.9472 78.762 86.8562 78.9593 86.724ZM114.117 69.9727C114.149 70.5178 114.056 73.1454 114.142 73.3894C120.175 71.3084 126.311 69.9421 132.538 68.6036C136.073 67.8437 140.169 67.2311 143.624 66.3453C143.632 65.7994 143.675 64.235 143.641 63.7372L143.535 63.701C141.489 64.3233 138.679 64.7683 136.519 65.1785L122.17 67.7971C120.586 68.0981 119.02 68.4896 117.481 68.9701C116.302 69.3254 115.323 69.6758 114.117 69.9727ZM83.4857 49.4507C82.915 50.5075 82.7994 51.1597 84.119 51.4532C84.3307 51.3426 84.5634 51.2279 84.7702 51.1125C85.0565 50.7718 85.4631 50.0139 85.4264 49.571L85.3457 49.491C84.5162 49.6488 84.3463 49.5765 83.4857 49.4507ZM98.3478 68.0126C98.7025 67.9876 98.8818 68.0077 99.1069 67.7268C99.4943 67.2436 99.7226 66.4259 99.9331 65.828C97.3488 65.755 94.7634 65.7327 92.1782 65.7591C90.6566 65.7626 88.7876 65.7216 87.309 65.8196C87.0019 65.8252 86.626 65.7904 86.379 65.9378C86.0496 66.3237 85.8386 67.1518 86.0704 67.6191C86.2092 67.7213 86.3257 67.731 86.4959 67.7352C88.8872 67.7929 91.295 67.8409 93.6791 68.0495C95.2726 68.1892 96.7719 68.023 98.3478 68.0126ZM131.682 34.3344C132.151 34.2576 132.636 34.1709 133.105 34.1066C133.096 33.7178 133.098 32.6593 132.931 32.3682L132.848 32.3384C132.356 32.5631 131.806 32.825 131.384 33.1673C131.378 33.5253 131.343 33.9193 131.443 34.2543C131.581 34.3639 131.504 34.3373 131.682 34.3344ZM76.4066 57.8987C76.1799 58.1212 75.9641 58.2825 75.8699 58.5766C75.8944 58.8651 75.8411 58.7428 76.0357 58.9562C76.4626 59.1252 77.3177 59.0668 77.7356 58.9194C77.9807 58.6857 78.0782 58.6023 78.2691 58.3103L78.2652 58.2192C78.0335 58.2116 77.8873 58.3304 77.6849 58.3548C77.2656 58.4035 76.7719 57.9939 76.4066 57.8987ZM91.8204 43.4525L92.7279 43.0742C91.8679 42.8292 91.2587 42.5928 90.3662 42.6357C90.1287 42.7866 90.1515 42.7182 90.1043 42.9212C90.4441 43.681 91.14 43.7137 91.8204 43.4525ZM131.645 31.2937L131.729 31.1935C131.365 30.7639 129.555 30.5143 128.978 30.624C129.774 30.857 130.362 30.9216 130.986 31.4711C131.035 31.5134 131.54 31.3293 131.645 31.2937ZM111.9 79.5172L111.869 64.9776C110.586 64.6647 109.781 64.7447 108.531 64.5993C108.759 65.8912 108.66 69.8107 108.659 71.2952V84.3259C108.659 85.9905 108.591 87.7086 108.722 89.3607C108.796 90.3 110.26 90.4384 110.97 90.3341C111.731 90.2228 111.861 89.2571 111.912 88.6396C111.963 88.253 112.018 87.8769 112.042 87.4875C110.906 86.4487 111.199 86.0468 112.119 84.983C111.991 84.0527 111.904 82.8192 111.882 81.8736C110.982 80.9551 110.932 80.4788 111.9 79.5172ZM87.1396 73.4659C87.1797 74.0291 87.2159 74.5457 87.2242 75.1117C87.1938 76.0372 87.4024 77.902 87.4473 78.9408L87.7149 84.0332C87.7474 84.6986 87.6605 86.7852 88.1267 87.1697L88.2104 87.0703C88.2637 86.731 88.2387 86.3458 88.1968 86.0044C87.9395 83.9122 88.0011 81.8277 87.913 79.7258C87.8354 77.9048 87.668 76.0886 87.4114 74.2836C87.4057 73.9971 87.319 73.509 87.3034 73.1273C87.2739 72.8686 87.2628 72.5252 87.1376 72.311C87.0026 72.5481 87.0906 73.1864 87.1396 73.4659ZM80.0284 53.5683C79.6213 53.537 78.8053 53.439 78.4426 53.4445C78.3426 53.8109 78.2606 54.0105 78.4606 54.3644C78.7072 54.8004 79.1654 54.8769 79.5459 54.525L80.0284 53.5683ZM143.505 57.6456C142.136 58.3339 139.828 58.5759 138.224 58.9374C136.205 59.4075 134.192 59.9067 132.187 60.4358C128.62 61.3599 125.063 62.3229 121.516 63.3228C119.243 63.9757 116.429 64.9581 114.109 65.3725C114.117 65.7056 114.064 67.5718 114.134 67.6851L114.223 67.6935C116.337 66.9474 118.494 66.3286 120.682 65.8405C122.561 65.4288 124.725 65.0791 126.631 64.7259C128.904 64.2997 131.173 63.8595 133.439 63.4041L138.428 62.4091C140.122 62.067 141.921 61.6443 143.647 61.6436C143.579 60.3461 143.508 58.9465 143.505 57.6456ZM81.767 54.922C81.9491 54.742 82.1588 54.5431 82.3271 54.3533C82.6135 54.0119 82.808 53.763 83.1488 53.4737C82.8639 53.3666 82.5801 53.2561 82.2977 53.1428C82.186 53.8102 82.0305 54.2963 81.767 54.922ZM126.773 35.1179C127.525 34.9303 128.36 34.7592 129.132 34.6793L129.914 34.5434C129.844 33.903 129.721 33.0027 129.697 32.3803C128.947 32.2234 127.892 31.9963 127.21 31.6713C127.054 32.7223 126.988 34.1515 126.773 35.1179ZM85.8295 45.3164C85.672 45.801 85.5506 46.2488 85.8434 46.7014C86.4547 47.647 87.3509 47.9982 88.0702 47.0282C88.2312 46.6799 88.6578 45.8719 88.5745 45.5326C88.2208 45.4262 87.8229 45.7502 87.4349 45.7071C86.8751 45.6446 86.3974 45.3894 85.8295 45.3164Z" fill="#B9343E"/></svg>